# xmcd
# 
# Track frame offsets:
#     150
#     17696
#     39615
#     62487
# 
# Disc length: 1093
# 
# Revision: 0
# Processed by: cddbd v1.5.2PL0 Copyright (c) Steve Scherf et al.
# Submitted via: fre:ac v1.0.17
# 
DISCID=29044304
DTITLE=Better Not Breathing - Demo
DYEAR=0
DGENRE=Alternative
TTITLE0=1
TTITLE1=2
TTITLE2=3
TTITLE3=4
EXTD=
EXTT0=
EXTT1=
EXTT2=
EXTT3=
PLAYORDER=
